<svg width="64" height="64" viewBox="0 0 64 64" fill="none" xmlns="http://www.w3.org/2000/svg">
<rect x="48" y="48" width="8" height="8" rx="2" fill="#007AFF"/>
<rect x="48" y="38" width="8" height="8" rx="2" fill="#007AFF" fill-opacity="0.78"/>
<rect x="48" y="28" width="8" height="8" rx="2" fill="#007AFF"/>
<rect x="48" y="18" width="8" height="8" rx="2" fill="#007AFF" fill-opacity="0.5"/>
<rect x="48" y="8" width="8" height="8" rx="2" fill="#007AFF"/>
<rect x="38" y="48" width="8" height="8" rx="2" fill="#007AFF" fill-opacity="0.96"/>
<rect x="38" y="38" width="8" height="8" rx="2" fill="#007AFF"/>
<rect x="38" y="28" width="8" height="8" rx="2" fill="#007AFF" fill-opacity="0.63"/>
<rect x="38" y="18" width="8" height="8" rx="2" fill="#007AFF" fill-opacity="0.36"/>
<rect x="38" y="8" width="8" height="8" rx="2" fill="#007AFF" fill-opacity="0.64"/>
<rect x="28" y="48" width="8" height="8" rx="2" fill="#007AFF"/>
<rect x="28" y="38" width="8" height="8" rx="2" fill="#007AFF" fill-opacity="0.45"/>
<rect x="28" y="28" width="8" height="8" rx="2" fill="#007AFF" fill-opacity="0.28"/>
<rect x="28" y="18" width="8" height="8" rx="2" fill="#007AFF" fill-opacity="0.8"/>
<rect x="28" y="8" width="8" height="8" rx="2" fill="#007AFF" fill-opacity="0.7"/>
<rect x="18" y="48" width="8" height="8" rx="2" fill="#007AFF" fill-opacity="0.27"/>
<rect x="18" y="38" width="8" height="8" rx="2" fill="#007AFF" fill-opacity="0.46"/>
<rect x="18" y="28" width="8" height="8" rx="2" fill="#007AFF" fill-opacity="0.74"/>
<rect x="18" y="18" width="8" height="8" rx="2" fill="#007AFF" fill-opacity="0.96"/>
<rect x="18" y="8" width="8" height="8" rx="2" fill="#007AFF" fill-opacity="0.82"/>
<rect x="8" y="48" width="8" height="8" rx="2" fill="#007AFF"/>
<rect x="8" y="38" width="8" height="8" rx="2" fill="#007AFF"/>
<rect x="8" y="28" width="8" height="8" rx="2" fill="#007AFF" fill-opacity="0.33"/>
<rect x="8" y="18" width="8" height="8" rx="2" fill="#007AFF" fill-opacity="0.12"/>
<rect x="8" y="8" width="8" height="8" rx="2" fill="#007AFF" fill-opacity="0.4"/>
</svg>
