<svg width="64" height="64" viewBox="0 0 64 64" fill="none" xmlns="http://www.w3.org/2000/svg">
<path d="M8 33H22V53C22 54.6569 20.6569 56 19 56H11C9.34315 56 8 54.6569 8 53V33Z" fill="#34C759"/>
<path d="M8 19C8 17.3431 9.34315 16 11 16H19C20.6569 16 22 17.3431 22 19V34H8V19Z" fill="#007AFF"/>
<path d="M25 39H39V53C39 54.6569 37.6569 56 36 56H28C26.3431 56 25 54.6569 25 53V39Z" fill="#34C759"/>
<path d="M42 32H56V53C56 54.6569 54.6569 56 53 56H45C43.3431 56 42 54.6569 42 53V32Z" fill="#34C759"/>
<path d="M25 29C25 27.3431 26.3431 26 28 26H36C37.6569 26 39 27.3431 39 29V40H25V29Z" fill="#3C82F6"/>
<path d="M42 16C42 14.3431 43.3431 13 45 13H53C54.6569 13 56 14.3431 56 16V33H42V16Z" fill="#007AFF"/>
</svg>
