<svg width="64" height="64" viewBox="0 0 64 64" fill="none" xmlns="http://www.w3.org/2000/svg">
<path d="M28.1666 45.7042C28.9268 45.8901 29.611 45.5001 29.8329 44.7506L36.9814 20.6115C37.1728 19.9366 36.8385 19.2589 36.0783 19.0547C35.3333 18.8689 34.6979 19.1477 34.4425 20.0235L27.3365 44.0276C27.1175 44.7804 27.3579 45.5001 28.1666 45.7042Z" fill="black"/>
<path d="M12 32.3568C12 32.7499 12.1764 33.1396 12.5046 33.4216L22.0655 41.9466C22.6825 42.4776 23.4794 42.4744 23.9719 41.9287C24.4765 41.3647 24.3975 40.5639 23.829 40.0662L15.214 32.3568L23.829 24.6476C24.3975 24.1496 24.4765 23.3488 23.9719 22.7851C23.4794 22.2391 22.6825 22.2362 22.0655 22.7669L12.5046 31.2922C12.1764 31.5742 12 31.9639 12 32.3568ZM52.1638 32.3568C52.1638 31.9639 52.0027 31.5742 51.6742 31.2922L42.1015 22.7669C41.481 22.2362 40.6997 22.2391 40.1948 22.7851C39.6871 23.3488 39.7663 24.1496 40.3378 24.6476L48.968 32.3568L40.3378 40.0662C39.7663 40.5639 39.6871 41.3647 40.1948 41.9287C40.6997 42.4744 41.481 42.4776 42.1015 41.9466L51.6742 33.4216C52.0027 33.1396 52.1638 32.7499 52.1638 32.3568Z" fill="black"/>
</svg>
