<?xml version="1.0" encoding="UTF-8"?>
<svg width="180px" height="180px" viewBox="0 0 180 180" version="1.1" xmlns="http://www.w3.org/2000/svg" xmlns:xlink="http://www.w3.org/1999/xlink">
    <title>favicon_light@1x</title>
    <g id="favicon_light" stroke="none" stroke-width="1" fill="none" fill-rule="evenodd">
        <path d="M154.836974,2.00088629 C162.827465,2.03102479 165.824365,2.83005759 168.825259,4.43495343 C171.730826,5.98886768 174.011132,8.26917367 175.565047,11.1747407 C177.201411,14.2344761 178,17.290059 178,25.638852 L178,154.361148 C178,162.709941 177.201411,165.765524 175.565047,168.825259 C174.011132,171.730826 171.730826,174.011132 168.825259,175.565047 C165.765524,177.201411 162.709941,178 154.361148,178 L25.638852,178 C17.290059,178 14.2344761,177.201411 11.1747407,175.565047 C8.26917367,174.011132 5.98886768,171.730826 4.43495343,168.825259 C2.83145498,165.826978 2.0324545,162.833141 2.00095428,154.850612 L2,25.638852 C2,17.290059 2.79858904,14.2344761 4.43495343,11.1747407 C5.98886768,8.26917367 8.26917367,5.98886768 11.1747407,4.43495343 C14.1730221,2.83145498 17.1668589,2.0324545 25.1493883,2.00095428 Z" id="Rectangle" stroke="#B1CDFF" stroke-width="4" fill="#FFFFFF"></path>
        <g id="Group" transform="translate(20, 24)" stroke-width="2">
            <path d="M54.108573,8.88907232 C63.0477921,1.72770304 83.5371053,-0.0755149607 102.144903,1.54267194 C112.498804,2.44307656 122.294185,4.42170503 129.256794,7.20279391 C132.403386,8.45964335 134.962237,9.87268134 136.695309,11.4363199 C138.133525,12.7339287 139,14.12322 139,15.6323632 C139,23.7297512 119.990189,57.4712192 100.470378,86.4072501 C84.4956259,110.08811 68.1314312,131 61.5001435,131 C54.4218004,131 40.0661094,118.15141 27.1251815,103.521375 C25.4696919,101.649804 23.8353172,99.7453308 22.2408289,97.8297198 L21.4469955,96.8710869 C10.1188501,83.1202675 1,68.9837116 1,62.4725866 C1,53.1731449 14.8561602,40.1662161 29.6375191,28.1419384 L30.8377799,27.169243 C35.6448904,23.2878152 40.5125581,19.5230824 44.99965,16.035046 C48.2789595,13.4858781 51.3693705,11.0834967 54.108573,8.88907232 Z" id="Oval-Copy-3" stroke="#B1CDFF" fill="#E5F2FF"></path>
            <path d="M64.713729,13.5000749 C71.3310613,8.21440407 83.0835223,8.08598622 93.643382,10.4738204 C99.9022718,11.8891034 105.769035,14.2102731 109.965272,16.964332 C113.553844,19.3195703 116,21.9679411 116,24.6830222 C116,31.2178098 101.92239,62.4661504 87.7392414,88.2383141 C81.9476783,98.7621488 76.1255165,108.376504 71.2018562,115.036118 C67.2512208,120.379644 63.9726561,124 61.7927371,124 C56.8364914,124 48.5230215,112.703779 40.6803652,99.6552533 C30.4390114,82.6158004 21,61.8750978 21,55.4656995 C21,48.7727037 31.3149803,39.4525055 42.4564245,30.5904932 L43.2729894,29.9429157 C43.5455775,29.727359 43.8185197,29.5121196 44.0916781,29.2972423 L45.2630064,28.379755 C48.5670127,25.8023945 51.8993923,23.2890058 55.0446347,20.9167122 C58.6114592,18.2264411 61.9384163,15.716888 64.713729,13.5000749 Z" id="Oval-Copy-2" stroke="#78A2ED" fill="#C8E3FF"></path>
            <path d="M74.271255,28 C77.742411,28 80.9633827,28.3866744 83.2330431,29.1846389 C84.1677564,29.5132642 84.9321253,29.9034767 85.4444328,30.3857538 C85.7802074,30.701846 86,31.0559589 86,31.4751568 C86,35.1061724 81.9917174,54.6251639 77.5260891,69.1838252 C76.0266232,74.0723235 74.4764074,78.4003922 73.0023718,81.3681292 C72.3794296,82.6223246 71.7781359,83.6241561 71.1964338,84.296497 C70.8737159,84.6694996 70.591688,85 70.2754072,85 C67.2202093,85 58.1262562,78.5918534 50.0756309,71.7964252 C49.8467936,71.6032667 49.618513,71.4096739 49.3909776,71.2157783 L48.7107961,70.6333142 C41.9351126,64.8022161 36,58.8168005 36,56.2244874 C36,50.405514 49.1385498,38.0383169 56.4768892,32.2608709 C60.1390541,29.3776627 67.6786176,28 74.271255,28 Z" id="Oval" stroke="#4763CE" fill="#92C2FF"></path>
        </g>
    </g>
</svg>